<svg width="28" height="28" viewBox="0 0 28 28" fill="none" xmlns="http://www.w3.org/2000/svg">
<path d="M14 15.8667L8.19585 21.6417C7.94307 21.8945 7.63196 22.0257 7.26251 22.0354C6.89307 22.0451 6.59168 21.9139 6.35835 21.6417C6.08612 21.3889 5.95001 21.0826 5.95001 20.7229C5.95001 20.3632 6.08612 20.0472 6.35835 19.775L12.1625 14L6.35835 8.19584C6.08612 7.94306 5.95001 7.63681 5.95001 7.27709C5.95001 6.91737 6.08612 6.6014 6.35835 6.32917C6.59168 6.0764 6.89307 5.95487 7.26251 5.96459C7.63196 5.97431 7.94307 6.10556 8.19585 6.35834L14 12.1333L19.8042 6.35834C20.057 6.10556 20.3681 5.97431 20.7375 5.96459C21.107 5.95487 21.4083 6.0764 21.6417 6.32917C21.9139 6.6014 22.05 6.91737 22.05 7.27709C22.05 7.63681 21.9236 7.94306 21.6708 8.19584L15.8667 14L21.6708 19.775C21.9236 20.0472 22.05 20.3632 22.05 20.7229C22.05 21.0826 21.9139 21.3889 21.6417 21.6417C21.4083 21.9139 21.107 22.0451 20.7375 22.0354C20.3681 22.0257 20.057 21.8945 19.8042 21.6417L14 15.8667Z" fill="white"/>
</svg>
