<svg width="28" height="28" viewBox="0 0 28 28" fill="none" xmlns="http://www.w3.org/2000/svg">
<path d="M13.2883 17.9763H14.7877V13.2503H13.2883V17.9763ZM13.9901 12.1684C14.2498 12.1684 14.4634 12.0868 14.6311 11.9236C14.7987 11.7604 14.8826 11.5521 14.8826 11.2988C14.8826 11.0061 14.7992 10.7806 14.6324 10.6222C14.4656 10.4636 14.2529 10.3843 13.9941 10.3843C13.707 10.3843 13.486 10.4625 13.331 10.6187C13.176 10.775 13.0985 10.9931 13.0985 11.273C13.0985 11.5422 13.1822 11.7588 13.3496 11.9227C13.517 12.0865 13.7305 12.1684 13.9901 12.1684ZM13.9896 22C12.888 22 11.8495 21.7938 10.874 21.3813C9.89858 20.9686 9.04867 20.4001 8.32427 19.6757C7.59987 18.9513 7.03136 18.101 6.61874 17.1247C6.20625 16.1483 6 15.1077 6 14.0027C6 12.8989 6.20663 11.8617 6.61988 10.8911C7.03326 9.9206 7.60399 9.07125 8.33205 8.34306C9.06012 7.61487 9.90947 7.04231 10.8801 6.62539C11.8507 6.20846 12.8865 6 13.9875 6C15.093 6 16.134 6.20789 17.1104 6.62368C18.0869 7.03946 18.9372 7.61044 19.6613 8.33661C20.3854 9.0629 20.9562 9.91396 21.3737 10.8898C21.7912 11.8655 22 12.9071 22 14.0148C22 15.1215 21.7915 16.1583 21.3746 17.1252C20.9577 18.0921 20.3851 18.9384 19.6569 19.6643C18.9287 20.3903 18.0783 20.961 17.1057 21.3765C16.133 21.7922 15.0943 22 13.9896 22ZM13.9956 20.2728C15.7195 20.2728 17.1935 19.663 18.4177 18.4434C19.6418 17.2239 20.2539 15.7442 20.2539 14.0044C20.2539 12.2805 19.6444 10.8065 18.4255 9.58225C17.2068 8.35818 15.7267 7.74614 13.9854 7.74614C12.2615 7.74614 10.7875 8.35559 9.56327 9.57447C8.3392 10.7932 7.72716 12.2733 7.72716 14.0146C7.72716 15.7385 8.33699 17.2125 9.55663 18.4367C10.7761 19.6608 12.2558 20.2728 13.9956 20.2728Z" fill="white"/>
</svg>
