<svg width="28" height="28" viewBox="0 0 28 28" fill="none" xmlns="http://www.w3.org/2000/svg">
<path d="M11.9183 22L11.5263 19.4757C11.352 19.4251 11.1601 19.3376 10.9505 19.2134C10.7409 19.0891 10.5656 18.9678 10.4247 18.8493L8.10968 19.9312L6 16.1352L8.10968 14.5758C8.09724 14.5155 8.09102 14.426 8.09102 14.3075V13.7339C8.09102 13.6318 8.09724 13.5339 8.10968 13.4401L6 11.8458L8.10968 8.08778L10.4621 9.16963C10.5852 9.07537 10.7528 8.96636 10.965 8.84261C11.1774 8.71899 11.3644 8.63187 11.5263 8.58126L11.9183 6H16.0817L16.4551 8.56228C16.6418 8.61289 16.8378 8.70146 17.0432 8.828C17.2485 8.95453 17.4197 9.06841 17.5566 9.16963L19.909 8.08778L22 11.8458L19.853 13.3832C19.8654 13.4788 19.881 13.5864 19.8996 13.7058C19.9183 13.8253 19.9277 13.9265 19.9277 14.0095C19.9277 14.0925 19.9183 14.1906 19.8996 14.3037C19.881 14.4168 19.8654 14.5149 19.853 14.5979L22 16.1352L19.8716 19.9312L17.5566 18.8493C17.4197 18.9632 17.2423 19.0866 17.0245 19.2195C16.8067 19.3523 16.6231 19.4377 16.4737 19.4757L16.0817 22H11.9183ZM13.3372 20.2728H14.6508L14.9288 18.1661C15.3613 18.0522 15.7665 17.8909 16.1442 17.6821C16.5221 17.4733 16.8633 17.1981 17.1679 16.8565L19.1435 17.7485L19.7223 16.6287L17.986 15.3571C18.0482 15.1339 18.098 14.911 18.1354 14.6884C18.1727 14.4658 18.1914 14.2401 18.1914 14.0112C18.1914 13.7823 18.1727 13.554 18.1354 13.3262C18.098 13.0985 18.0545 12.8834 18.0047 12.6809L19.741 11.3903L19.1435 10.2705L17.1679 11.1625C16.8794 10.8082 16.5449 10.509 16.1644 10.265C15.7838 10.0208 15.3679 9.87707 14.9167 9.83393L14.6628 7.74614H13.3186L13.0758 9.83393C12.6402 9.9225 12.2264 10.0807 11.8343 10.3084C11.4422 10.5362 11.0968 10.8146 10.7981 11.1435L8.8617 10.2705L8.25904 11.3903L9.97666 12.6429C9.91443 12.858 9.86776 13.0795 9.83664 13.3072C9.80552 13.535 9.78996 13.7726 9.78996 14.0199C9.78996 14.266 9.80552 14.503 9.83664 14.7307C9.86776 14.9585 9.91443 15.1673 9.97666 15.3571L8.25904 16.6287L8.85648 17.7485L10.7981 16.8565C11.1093 17.1981 11.4578 17.4828 11.8436 17.7106C12.2295 17.9383 12.6402 18.0965 13.0758 18.1851L13.3372 20.2728ZM13.972 16.4199C14.6287 16.4199 15.188 16.1853 15.65 15.7162C16.1121 15.247 16.3431 14.679 16.3431 14.0121C16.3431 13.3575 16.1121 12.7916 15.65 12.3146C15.188 11.8376 14.6287 11.5991 13.972 11.5991C13.2999 11.5991 12.7367 11.8367 12.2824 12.3119C11.8281 12.7872 11.6009 13.3522 11.6009 14.0068C11.6009 14.6737 11.8281 15.2425 12.2824 15.7135C12.7367 16.1845 13.2999 16.4199 13.972 16.4199Z" fill="white"/>
</svg>
